FILE "Cape Grace Shaman's Tales from the Golden Age of the Solar Clipper, Book 2.m4b" MP4
TRACK 1 AUDIO
  TITLE "Chapter 01"
  INDEX 01 0:0:00
TRACK 2 AUDIO
  TITLE "Chapter 02"
  INDEX 01 0:19:34
TRACK 3 AUDIO
  TITLE "Chapter 03"
  INDEX 01 6:40:73
TRACK 4 AUDIO
  TITLE "Chapter 04"
  INDEX 01 27:20:72
TRACK 5 AUDIO
  TITLE "Chapter 05"
  INDEX 01 33:58:75
TRACK 6 AUDIO
  TITLE "Chapter 06"
  INDEX 01 38:38:02
TRACK 7 AUDIO
  TITLE "Chapter 07"
  INDEX 01 46:38:28
TRACK 8 AUDIO
  TITLE "Chapter 08"
  INDEX 01 50:10:90
TRACK 9 AUDIO
  TITLE "Chapter 09"
  INDEX 01 82:6:50
TRACK 10 AUDIO
  TITLE "Chapter 10"
  INDEX 01 93:24:69
TRACK 11 AUDIO
  TITLE "Chapter 11"
  INDEX 01 102:39:32
TRACK 12 AUDIO
  TITLE "Chapter 12"
  INDEX 01 109:20:05
TRACK 13 AUDIO
  TITLE "Chapter 13"
  INDEX 01 114:45:06
TRACK 14 AUDIO
  TITLE "Chapter 14"
  INDEX 01 118:20:47
TRACK 15 AUDIO
  TITLE "Chapter 15"
  INDEX 01 124:22:40
TRACK 16 AUDIO
  TITLE "Chapter 16"
  INDEX 01 129:23:29
TRACK 17 AUDIO
  TITLE "Chapter 17"
  INDEX 01 131:53:03
TRACK 18 AUDIO
  TITLE "Chapter 18"
  INDEX 01 135:54:77
TRACK 19 AUDIO
  TITLE "Chapter 19"
  INDEX 01 140:52:99
TRACK 20 AUDIO
  TITLE "Chapter 20"
  INDEX 01 149:28:66
TRACK 21 AUDIO
  TITLE "Chapter 21"
  INDEX 01 156:17:00
TRACK 22 AUDIO
  TITLE "Chapter 22"
  INDEX 01 166:9:53
TRACK 23 AUDIO
  TITLE "Chapter 23"
  INDEX 01 199:27:00
TRACK 24 AUDIO
  TITLE "Chapter 24"
  INDEX 01 213:57:24
TRACK 25 AUDIO
  TITLE "Chapter 25"
  INDEX 01 218:51:16
TRACK 26 AUDIO
  TITLE "Chapter 26"
  INDEX 01 227:49:05
TRACK 27 AUDIO
  TITLE "Chapter 27"
  INDEX 01 239:57:76
TRACK 28 AUDIO
  TITLE "Chapter 28"
  INDEX 01 242:34:68
TRACK 29 AUDIO
  TITLE "Chapter 29"
  INDEX 01 250:52:08
TRACK 30 AUDIO
  TITLE "Chapter 30"
  INDEX 01 265:17:72
TRACK 31 AUDIO
  TITLE "Chapter 31"
  INDEX 01 277:30:79
TRACK 32 AUDIO
  TITLE "Chapter 32"
  INDEX 01 285:14:43
TRACK 33 AUDIO
  TITLE "Chapter 33"
  INDEX 01 293:48:45
TRACK 34 AUDIO
  TITLE "Chapter 34"
  INDEX 01 306:52:61
TRACK 35 AUDIO
  TITLE "Chapter 35"
  INDEX 01 314:12:07
TRACK 36 AUDIO
  TITLE "Chapter 36"
  INDEX 01 318:31:36
TRACK 37 AUDIO
  TITLE "Chapter 37"
  INDEX 01 324:25:72
TRACK 38 AUDIO
  TITLE "Chapter 38"
  INDEX 01 334:58:79
TRACK 39 AUDIO
  TITLE "Chapter 39"
  INDEX 01 346:3:19
TRACK 40 AUDIO
  TITLE "Chapter 40"
  INDEX 01 354:52:46
TRACK 41 AUDIO
  TITLE "Chapter 41"
  INDEX 01 363:21:98
TRACK 42 AUDIO
  TITLE "Chapter 42"
  INDEX 01 368:7:33
TRACK 43 AUDIO
  TITLE "Chapter 43"
  INDEX 01 375:31:99
TRACK 44 AUDIO
  TITLE "Chapter 44"
  INDEX 01 391:7:22
TRACK 45 AUDIO
  TITLE "Chapter 45"
  INDEX 01 405:18:07
TRACK 46 AUDIO
  TITLE "Chapter 46"
  INDEX 01 436:31:06
TRACK 47 AUDIO
  TITLE "Chapter 47"
  INDEX 01 444:3:80
TRACK 48 AUDIO
  TITLE "Chapter 48"
  INDEX 01 475:38:43
TRACK 49 AUDIO
  TITLE "Chapter 49"
  INDEX 01 480:48:12
TRACK 50 AUDIO
  TITLE "Chapter 50"
  INDEX 01 492:25:67
TRACK 51 AUDIO
  TITLE "Chapter 51"
  INDEX 01 504:18:99
TRACK 52 AUDIO
  TITLE "Chapter 52"
  INDEX 01 510:55:58
TRACK 53 AUDIO
  TITLE "Chapter 53"
  INDEX 01 515:35:94
TRACK 54 AUDIO
  TITLE "Chapter 54"
  INDEX 01 520:54:29
TRACK 55 AUDIO
  TITLE "Chapter 55"
  INDEX 01 526:5:34
TRACK 56 AUDIO
  TITLE "Chapter 56"
  INDEX 01 535:13:01
TRACK 57 AUDIO
  TITLE "Chapter 57"
  INDEX 01 540:56:27
TRACK 58 AUDIO
  TITLE "Chapter 58"
  INDEX 01 548:14:06
TRACK 59 AUDIO
  TITLE "Chapter 59"
  INDEX 01 550:22:39
TRACK 60 AUDIO
  TITLE "Chapter 60"
  INDEX 01 569:45:06
TRACK 61 AUDIO
  TITLE "Chapter 61"
  INDEX 01 575:38:24
TRACK 62 AUDIO
  TITLE "Chapter 62"
  INDEX 01 578:41:14
TRACK 63 AUDIO
  TITLE "Chapter 63"
  INDEX 01 582:56:63
TRACK 64 AUDIO
  TITLE "Chapter 64"
  INDEX 01 588:12:35
TRACK 65 AUDIO
  TITLE "Chapter 65"
  INDEX 01 589:6:15
